<svg width="512" height="512" viewBox="0 0 512 512" fill="none" xmlns="http://www.w3.org/2000/svg" role="img" aria-labelledby="title desc">
  <title id="title">Entra CA Manager Logo Monochrome</title>
  <desc id="desc">Single-color shield and lock emblem with a check mark for Conditional Access governance.</desc>

  <rect x="38" y="32" width="436" height="436" rx="104" fill="#111111"/>
  <path d="M256 96C305 96 350 112 384 141V252C384 337 330 403 256 424C182 403 128 337 128 252V141C162 112 207 96 256 96Z" fill="#FFFFFF" fill-opacity="0.12"/>
  <path d="M256 120C296 120 333 133 362 157V247C362 318 318 378 256 399C194 378 150 318 150 247V157C179 133 216 120 256 120Z" stroke="#FFFFFF" stroke-opacity="0.8" stroke-width="8"/>

  <circle cx="256" cy="242" r="82" stroke="#FFFFFF" stroke-width="10"/>
  <path d="M225 237V214C225 196 239 182 256 182C273 182 287 196 287 214V237" stroke="#FFFFFF" stroke-width="12" stroke-linecap="round"/>
  <rect x="212" y="230" width="88" height="86" rx="18" fill="#FFFFFF"/>
  <circle cx="256" cy="268" r="11" fill="#111111"/>
  <path d="M256 279V296" stroke="#111111" stroke-width="8" stroke-linecap="round"/>

  <path d="M196 320L233 357L319 271" stroke="#FFFFFF" stroke-width="15" stroke-linecap="round" stroke-linejoin="round"/>
</svg>
