<svg width="1200" height="320" viewBox="0 0 1200 320" fill="none" xmlns="http://www.w3.org/2000/svg" role="img" aria-labelledby="title desc">
  <title id="title">Entra CA Manager Wordmark Dark</title>
  <desc id="desc">Entra CA Manager logo with shield icon and text optimized for dark backgrounds.</desc>
  <defs>
    <linearGradient id="iconBgDark" x1="30" y1="24" x2="276" y2="270" gradientUnits="userSpaceOnUse">
      <stop offset="0" stop-color="#1F8BFF"/>
      <stop offset="1" stop-color="#0A4AA2"/>
    </linearGradient>
    <linearGradient id="shieldGlowDark" x1="80" y1="74" x2="206" y2="205" gradientUnits="userSpaceOnUse">
      <stop offset="0" stop-color="#8FDEFF"/>
      <stop offset="1" stop-color="#EFFFFF"/>
    </linearGradient>
  </defs>

  <rect x="30" y="24" width="246" height="246" rx="58" fill="url(#iconBgDark)"/>

  <path d="M153 70C182 70 209 79 229 96V159C229 206 198 242 153 257C108 242 77 206 77 159V96C97 79 124 70 153 70Z" fill="url(#shieldGlowDark)" fill-opacity="0.24"/>
  <path d="M153 83C177 83 200 91 217 105V157C217 197 192 230 153 243C114 230 89 197 89 157V105C106 91 129 83 153 83Z" stroke="#DDF5FF" stroke-opacity="0.9" stroke-width="5"/>
  <circle cx="153" cy="157" r="49" stroke="#F6FDFF" stroke-width="6"/>
  <path d="M134 154V140C134 129 142 121 153 121C164 121 172 129 172 140V154" stroke="#FFFFFF" stroke-width="7" stroke-linecap="round"/>
  <rect x="126" y="150" width="54" height="50" rx="10" fill="#FFFFFF"/>
  <circle cx="153" cy="171" r="6" fill="#0C4699"/>
  <path d="M153 177V188" stroke="#0C4699" stroke-width="4.5" stroke-linecap="round"/>
  <path d="M117 201L137 221L190 169" stroke="#72FFA9" stroke-width="8" stroke-linecap="round" stroke-linejoin="round"/>

  <text x="328" y="135" fill="#FFFFFF" font-family="Segoe UI, Tahoma, Arial, sans-serif" font-size="74" font-weight="700" letter-spacing="0.5">entra-ca-manager</text>
  <text x="332" y="184" fill="#BDE3FF" font-family="Segoe UI, Tahoma, Arial, sans-serif" font-size="31" font-weight="600" letter-spacing="1.8">Conditional Access Governance</text>
</svg>
